<svg width="21" height="20" viewBox="0 0 21 20" fill="none" xmlns="http://www.w3.org/2000/svg">
<g clip-path="url(#clip0_7839_40612)">
<circle cx="10.5" cy="10" r="10" fill="#EDF4FC"/>
<path d="M10.1841 5.62955C10.3593 5.45682 10.6407 5.45682 10.8159 5.62955L14.3659 9.12956C14.5429 9.30404 14.5449 9.58896 14.3705 9.76594C14.196 9.94291 13.911 9.94493 13.7341 9.77045L10.95 7.02559V14.05C10.95 14.2985 10.7485 14.5 10.5 14.5C10.2515 14.5 10.05 14.2985 10.05 14.05V7.02559L7.26593 9.77045C7.08896 9.94494 6.80404 9.94291 6.62955 9.76594C6.45507 9.58896 6.45709 9.30404 6.63407 9.12956L10.1841 5.62955Z" fill="#005FF9"/>
</g>
<defs>
<clipPath id="clip0_7839_40612">
<rect width="20" height="20" fill="white" transform="translate(0.5)"/>
</clipPath>
</defs>
</svg>
