<svg width="20" height="20" viewBox="0 0 20 20" fill="none" xmlns="http://www.w3.org/2000/svg">
<g clip-path="url(#clip0_7839_40596)">
<circle cx="10" cy="10" r="10" fill="#EDF4FC"/>
<path fill-rule="evenodd" clip-rule="evenodd" d="M6.74848 6.1331C6.9235 6.30955 6.92234 6.59447 6.74589 6.76949C5.91423 7.5944 5.4 8.73673 5.4 10C5.4 11.2633 5.91422 12.4056 6.74588 13.2305C6.92233 13.4055 6.92349 13.6904 6.74847 13.8669C6.57345 14.0433 6.28853 14.0445 6.11208 13.8695C5.11704 12.8825 4.5 11.5129 4.5 10C4.5 8.4871 5.11705 7.11748 6.11209 6.13051C6.28854 5.95549 6.57346 5.95665 6.74848 6.1331Z" fill="#005FF9"/>
<path fill-rule="evenodd" clip-rule="evenodd" d="M13.2505 6.1331C13.4255 5.95665 13.7104 5.95549 13.8869 6.13051C14.8819 7.11748 15.499 8.4871 15.499 10C15.499 11.5129 14.8819 12.8825 13.8869 13.8695C13.7105 14.0445 13.4255 14.0433 13.2505 13.8669C13.0755 13.6904 13.0767 13.4055 13.2531 13.2305C14.0848 12.4056 14.599 11.2633 14.599 10C14.599 8.73673 14.0848 7.5944 13.2531 6.76949C13.0766 6.59447 13.0755 6.30955 13.2505 6.1331Z" fill="#005FF9"/>
<path fill-rule="evenodd" clip-rule="evenodd" d="M8.06723 7.62151C8.24865 7.79138 8.25802 8.07615 8.08815 8.25757C7.66093 8.71385 7.4 9.32596 7.4 10C7.4 10.6612 7.65036 11.3043 8.0492 11.7499C8.21495 11.9351 8.19919 12.2196 8.014 12.3853C7.82882 12.551 7.54433 12.5353 7.37858 12.3501C6.82735 11.7342 6.5 10.8755 6.5 10C6.5 9.08858 6.85402 8.25886 7.43118 7.64243C7.60104 7.46102 7.88581 7.45165 8.06723 7.62151Z" fill="#005FF9"/>
<path fill-rule="evenodd" clip-rule="evenodd" d="M11.9325 7.62151C12.1139 7.45165 12.3987 7.46102 12.5685 7.64243C13.1457 8.25886 13.4997 9.08858 13.4997 10C13.4997 10.8755 13.1724 11.7342 12.6211 12.3501C12.4554 12.5353 12.1709 12.551 11.9857 12.3853C11.8005 12.2196 11.7848 11.9351 11.9505 11.7499C12.3493 11.3043 12.5997 10.6612 12.5997 10C12.5997 9.32596 12.3388 8.71385 11.9116 8.25757C11.7417 8.07615 11.7511 7.79138 11.9325 7.62151Z" fill="#005FF9"/>
<path d="M11 9.99999C11 10.5523 10.5523 11 10 11C9.44776 11 9.00005 10.5523 9.00005 9.99999C9.00005 9.4477 9.44776 8.99999 10 8.99999C10.5523 8.99999 11 9.4477 11 9.99999Z" fill="#005FF9"/>
</g>
<defs>
<clipPath id="clip0_7839_40596">
<rect width="20" height="20" fill="white"/>
</clipPath>
</defs>
</svg>
