<svg width="21" height="20" viewBox="0 0 21 20" fill="none" xmlns="http://www.w3.org/2000/svg">
<g clip-path="url(#clip0_7839_40604)">
<circle cx="10.5" cy="10" r="10" fill="#EDF4FC"/>
<path d="M14.3704 10.2341C14.2105 10.0718 13.9578 10.0566 13.7804 10.1896L13.7341 10.2296L10.95 12.975L10.95 5.95C10.95 5.70147 10.7485 5.5 10.5 5.5C10.2706 5.5 10.0813 5.67167 10.0535 5.89355L10.05 5.95V12.975L7.26593 10.2296C7.1037 10.0696 6.85078 10.058 6.67535 10.1935L6.62955 10.2341C6.46961 10.3963 6.45798 10.6492 6.59347 10.8247L6.63407 10.8704L10.1841 14.3704C10.3447 14.5288 10.5946 14.542 10.77 14.41L10.8159 14.3704L14.3659 10.8704C14.5429 10.696 14.5449 10.411 14.3704 10.2341Z" fill="#005FF9"/>
</g>
<defs>
<clipPath id="clip0_7839_40604">
<rect width="20" height="20" fill="white" transform="translate(0.5)"/>
</clipPath>
</defs>
</svg>
